<svg width="2375" height="909" viewBox="0 0 2375 909" fill="none" xmlns="http://www.w3.org/2000/svg">
<rect width="2375" height="909" rx="454.5" fill="#F78989"/>
<circle cx="455" cy="454" r="411" fill="white"/>
<path d="M286.932 193.269C291.38 195.487 293.909 199.273 295.872 203.684C296.403 205.72 296.789 207.754 297.177 209.822C299.917 220.765 309.24 227.175 317.754 233.577C320.578 235.711 320.578 235.711 322.944 237.874C325.008 239.618 325.008 239.618 327.296 239.151C329.86 238.419 331.929 237.442 334.265 236.158C335.124 235.693 335.984 235.229 336.87 234.75C337.778 234.256 338.687 233.761 339.623 233.252C347.468 229.076 355.192 225.395 363.622 222.587C365.523 221.949 367.409 221.278 369.297 220.602C384.645 215.194 400.562 211.524 416.658 209.175C417.508 209.05 418.357 208.924 419.232 208.795C457.757 203.303 499.612 206.226 536.529 219.24C538.605 219.857 540.683 220.467 542.763 221.07C547.365 222.482 551.647 224.24 555.988 226.31C558.561 227.509 561.168 228.551 563.809 229.592C566.989 230.867 569.9 232.263 572.788 234.095C573.63 234.622 573.63 234.622 574.49 235.159C575.583 235.856 576.661 236.577 577.721 237.322C579.411 238.476 579.411 238.476 582.281 239.371C584.879 238.278 586.505 237.371 588.686 235.711C589.445 235.167 589.445 235.167 590.218 234.613C591.735 233.503 593.215 232.356 594.691 231.193C595.43 230.621 595.43 230.621 596.184 230.037C597.172 229.267 598.156 228.493 599.135 227.712C600.548 226.588 601.979 225.485 603.409 224.384C608.875 219.461 611.107 214.942 612.706 207.859C614.274 201.989 615.896 197.555 620.97 193.808C626.044 191.556 630.887 191.682 636.269 192.704C639.743 194.076 642.49 195.896 645.419 198.194C646.046 198.647 646.672 199.1 647.317 199.567C659.095 208.822 667.344 225.353 669.754 239.907C671.787 258.337 670.705 276.461 662.805 293.359C663.515 293.397 664.224 293.435 664.955 293.475C672.646 293.967 680.027 295.117 687.569 296.676C688.75 296.917 689.932 297.158 691.149 297.407C735.339 306.534 735.339 306.534 751.021 315.02C753.464 316.271 755.96 317.323 758.496 318.371C780.235 327.424 800.5 342.341 810.177 364.325C814.228 374.803 813.145 387.879 808.925 398.107C799.38 419.349 781.421 433.764 760.054 441.993C746.806 446.728 733.461 448.57 719.538 449.832C719.69 450.776 719.69 450.776 719.845 451.74C720.319 454.706 720.786 457.673 721.254 460.641C721.413 461.63 721.572 462.619 721.736 463.638C724.009 478.156 725.34 492.457 725.267 507.154C725.257 509.49 725.267 511.826 725.278 514.162C725.287 523.681 724.619 532.836 723.198 542.251C723.083 543.082 722.968 543.912 722.85 544.768C719.542 568.525 712.74 590.649 701.237 611.795C700.677 612.859 700.116 613.923 699.539 615.019C694.797 623.72 689.053 631.473 682.936 639.246C682.217 640.163 681.497 641.079 680.756 642.023C660.569 667.167 635.643 685.919 606.612 699.882C603.669 701.304 600.786 702.806 597.894 704.329C592.297 707.135 586.489 709.131 580.573 711.141C577.416 712.217 574.332 713.42 571.243 714.68C549.865 722.985 527.253 727.382 504.614 730.478C503.209 730.675 501.806 730.881 500.404 731.092C486.286 733.209 472.473 733.878 458.206 733.753C454.886 733.724 451.567 733.715 448.247 733.71C446.092 733.702 443.937 733.692 441.782 733.682C440.812 733.678 439.841 733.674 438.841 733.67C429.47 733.582 420.186 733.113 410.996 731.208C406.316 730.269 401.7 729.543 396.941 729.161C394.708 728.922 392.569 728.533 390.372 728.073C387.415 727.466 384.459 726.888 381.486 726.368C332.509 717.553 282.5 694.941 246.46 660.292C245.914 659.772 245.369 659.251 244.807 658.715C223.896 638.662 208.761 615.141 197.919 588.326C197.189 586.523 196.434 584.729 195.675 582.939C180.61 544.947 180.536 491.914 189.727 452.577C190.728 450.318 190.728 450.318 191.557 448.917C190.976 448.948 190.396 448.98 189.798 449.013C163.69 449.77 138.64 440.742 119.268 423.295C107.672 412.095 98.2875 397.235 98.0004 380.82C97.9494 365.11 103.382 353.728 114.407 342.543C129.246 328.102 147.872 319.317 166.851 311.66C167.801 311.274 168.752 310.888 169.732 310.491C180.926 306.203 192.791 303.507 204.421 300.672C206.389 300.19 208.338 299.675 210.286 299.117C216.743 297.271 223.183 296.041 229.817 295.017C230.817 294.855 231.816 294.693 232.846 294.526C237.448 293.801 241.791 293.274 246.46 293.359C246.303 292.876 246.146 292.394 245.985 291.897C238.285 267.943 234.983 243.564 246.46 220.155C254.379 205.082 267.872 187.995 286.932 193.269ZM274.826 221.07C265.061 234.321 262.446 247.958 263.845 264.077C265.065 271.516 266.72 279.333 270.251 286.039C273.12 284.793 274.748 283.481 276.713 281.063C283.586 272.971 291.136 265.979 299.532 259.502C301.376 257.993 303.2 256.462 305.022 254.927C302.444 252.193 299.797 250.141 296.673 248.064C286.918 241.028 280.918 231.698 275.741 221.07C275.439 221.07 275.137 221.07 274.826 221.07ZM633.524 221.07C632.842 222.528 632.842 222.528 632.148 224.016C626.083 236.746 618.462 247.064 605.157 253.097C606.48 256.301 608.053 257.797 610.819 259.845C633.976 277.793 633.976 277.793 638.099 286.039C638.703 286.039 639.307 286.039 639.929 286.039C640.83 283.409 641.725 280.779 642.617 278.146C642.871 277.407 643.125 276.667 643.387 275.905C649.106 258.955 646.743 242.432 638.975 226.62C637.139 222.884 637.139 222.884 633.524 221.07ZM409.338 234.796C408.337 235.016 407.337 235.237 406.306 235.464C392.55 238.527 379.256 241.939 366.33 247.607C365.652 247.902 364.974 248.197 364.276 248.502C349.418 254.991 335.525 261.806 322.408 271.398C320.993 272.419 320.993 272.419 319.549 273.46C314.234 277.358 309.236 281.458 304.39 285.924C302.44 287.719 300.455 289.458 298.446 291.186C291.947 296.877 286.544 303.024 281.231 309.83C280.407 310.858 279.581 311.885 278.754 312.911C274.285 318.481 270.061 324.055 266.33 330.157C265.252 331.907 264.137 333.634 262.991 335.34C247.329 358.762 235.364 384.77 226.329 411.4C225.919 412.576 225.919 412.576 225.501 413.775C214.641 445.039 209.548 477.202 209.515 510.225C209.513 510.977 209.511 511.73 209.509 512.505C209.513 527.491 210.88 542.04 214.261 556.663C214.504 557.727 214.746 558.791 214.996 559.887C216.748 567.376 218.777 574.493 221.753 581.598C222.408 583.267 222.408 583.267 223.076 584.969C228.321 597.962 235.47 610.932 244.648 621.563C246.431 623.657 248.12 625.802 249.809 627.972C269.812 653.028 297.803 672.293 327.899 683.168C329.388 683.752 330.876 684.342 332.359 684.941C333.476 685.385 333.476 685.385 334.615 685.838C336.351 686.544 338.078 687.274 339.798 688.019C361.271 697.082 384.48 702.72 407.508 706.044C408.843 706.243 408.843 706.243 410.206 706.445C452.065 712.418 495.182 709.047 536.186 699.181C537.137 698.954 537.137 698.954 538.107 698.722C559.788 693.475 581.706 686.043 601.268 675.276C602.135 674.8 603.002 674.324 603.895 673.834C611.691 669.487 619.018 664.661 626.203 659.377C626.715 659.007 627.227 658.638 627.755 658.257C655.719 638.004 677.228 610.275 689.341 577.938C689.569 577.346 689.796 576.753 690.03 576.143C693.759 566.306 695.727 556.233 697.577 545.911C697.874 544.36 697.874 544.36 698.177 542.777C699.808 533.532 700.052 524.165 700.322 514.8C700.343 514.11 700.365 513.42 700.387 512.709C701.374 476.122 694.115 439.13 681.106 404.994C680.781 404.128 680.456 403.261 680.121 402.367C672.561 382.274 663.813 363.036 652.74 344.601C652.364 343.968 651.988 343.334 651.601 342.681C643.965 329.818 636.086 317.667 625.771 306.788C623.833 304.736 621.973 302.653 620.141 300.508C614.433 293.941 608.161 287.962 601.497 282.378C600.158 281.212 600.158 281.212 598.791 280.023C569.141 254.808 529.909 238.954 491.692 232.966C490.686 232.804 489.68 232.643 488.644 232.476C477.662 230.897 466.743 230.771 455.662 230.793C454.689 230.793 453.717 230.794 452.714 230.794C437.928 230.829 423.805 231.507 409.338 234.796ZM231.533 320.124C230.816 320.247 230.099 320.371 229.361 320.498C203.877 324.994 178.574 331.559 155.633 343.758C154.17 344.533 152.694 345.281 151.216 346.028C141.037 351.288 128.185 359.98 123.468 370.87C121.687 377.793 122.132 384.876 125.434 391.226C127.441 394.481 129.658 397.462 132.079 400.419C132.506 401.001 132.933 401.582 133.373 402.181C144.071 415.869 160.462 420.812 176.916 423.295C183.629 424.112 190.289 424.345 197.047 424.21C197.735 422.171 198.422 420.131 199.106 418.091C199.317 417.463 199.527 416.835 199.745 416.188C200.996 412.437 202.169 408.675 203.281 404.88C207.357 391.572 212.549 378.795 219.016 366.481C220.241 364.121 221.406 361.733 222.575 359.345C228.498 347.298 234.66 335.434 242.756 324.688C244.886 322.12 244.886 322.12 245.544 318.98C240.73 318.854 236.271 319.295 231.533 320.124ZM664.635 318.98C665.856 321.497 667.186 323.885 668.66 326.261C675.806 337.9 682.305 349.781 688.426 361.987C688.82 362.77 689.213 363.553 689.618 364.359C694.036 373.225 697.855 382.107 700.973 391.512C702.081 394.878 702.081 394.878 703.435 397.835C705.615 402.794 707.107 408.012 708.729 413.173C709.234 414.766 709.234 414.766 709.749 416.391C710.575 418.997 711.398 421.603 712.218 424.21C734.014 425.107 755.011 422.072 771.696 406.825C772.476 406.117 773.257 405.409 774.062 404.68C782.008 397.13 786.837 389.034 788.681 378.172C787.036 367.39 780.059 360.077 771.696 353.752C759.426 345.125 745.471 338.781 731.434 333.621C730.533 333.285 730.533 333.285 729.615 332.943C713.57 327.035 696.795 323.596 680.019 320.467C678.798 320.237 678.798 320.237 677.552 320.002C673.172 319.22 669.084 318.824 664.635 318.98Z" fill="#6F474A"/>
<path d="M219.008 359.242C219.914 359.544 220.82 359.846 221.754 360.157C221.528 360.654 221.303 361.151 221.07 361.663C214.801 375.462 214.801 375.462 208.943 389.439C208.7 390.035 208.458 390.63 208.208 391.244C204.172 401.176 200.85 411.144 197.962 421.465C197.509 422.824 197.509 422.824 197.047 424.21C176.545 424.478 157.962 422.038 141.23 409.57C140.516 409.041 139.802 408.513 139.067 407.968C132.427 402.605 127.368 395.34 123.844 387.609C123.844 387.005 123.844 386.401 123.844 385.779C132 383.687 140.076 382.595 148.436 381.718C157.627 380.732 166.22 379.243 175.086 376.628C177.45 375.94 179.814 375.255 182.178 374.569C183.192 374.263 184.207 373.956 185.252 373.64C187.897 372.968 187.897 372.968 191.557 372.968C191.557 372.364 191.557 371.76 191.557 371.138C193.139 370.697 194.721 370.259 196.304 369.822C197.185 369.578 198.066 369.334 198.974 369.082C201.372 368.458 203.763 367.936 206.198 367.478C206.198 366.874 206.198 366.27 206.198 365.648C208.916 365.195 208.916 365.195 211.688 364.732C211.688 364.129 211.688 363.525 211.688 362.902C212.726 362.468 213.764 362.034 214.834 361.587C217.871 360.49 217.871 360.49 219.008 359.242Z" fill="#F4B9B8"/>
<path d="M593.146 405.166C601.306 410.776 606.843 417.868 610.646 426.956C610.981 427.659 611.316 428.362 611.661 429.086C612.714 432.243 612.752 435.013 612.762 438.337C612.777 439.506 612.793 440.675 612.809 441.879C612.324 446.801 610.643 449.724 607.386 453.378C604.215 455.821 601.196 455.92 597.289 455.708C593.087 454.97 590.573 452.998 588.106 449.61C586.63 446.634 586.521 444.503 586.455 441.196C586.095 434.955 584.662 431.9 580.049 427.642C574.671 423.969 569.448 423.239 563.064 424.211C558.581 426.004 555.06 428.276 552.026 432.046C550.919 436.103 550.743 440.035 550.625 444.231C550.092 448.326 548.333 450.708 545.678 453.778C541.497 456.13 537.554 456.008 532.867 455.322C528.783 453.15 526.111 449.639 524.632 445.257C523.203 435.416 525.81 425.657 531.323 417.462C546.979 396.963 570.785 392.006 593.146 405.166Z" fill="#6E464A"/>
<path d="M365.242 404.937C366.529 405.858 367.807 406.791 369.074 407.74C370.017 408.419 370.961 409.098 371.933 409.798C380.12 417.63 385.517 427.741 385.83 439.137C385.771 444.077 384.873 447.692 381.884 451.662C378.688 454.706 376.127 455.584 371.819 455.837C368.623 455.702 366.584 455.29 364.041 453.32C360.475 449.308 359.757 446.024 359.58 440.738C359.155 434.766 357.53 431.715 353.118 427.642C347.675 423.925 342.576 423.487 336.132 424.21C331.803 425.495 327.837 427.876 325.048 431.499C323.536 434.968 323.691 438.719 323.525 442.454C323.17 447.339 321.418 449.802 318.232 453.377C315.079 455.785 312.085 456.031 308.195 455.826C304.363 454.971 301.906 452.894 299.53 449.832C295.688 443.549 296.573 437.58 297.7 430.616C301.349 417.413 310.168 408.632 321.802 401.931C335.119 395.012 352.919 397.093 365.242 404.937Z" fill="#71474A"/>
<path d="M292.437 486.204C298.836 491.453 303.372 496.88 304.394 505.284C304.726 512.887 302.78 519.433 298.042 525.437C295.869 527.61 295.869 527.61 294.039 527.61C294.039 528.214 294.039 528.818 294.039 529.44C292.287 530.341 290.533 531.236 288.777 532.128C287.801 532.627 286.824 533.126 285.818 533.64C279.089 536.786 271.188 536.92 264.071 534.816C256.42 531.847 248.845 525.609 245.448 518.045C243.004 510.599 242.833 504.66 246.321 497.524C247.751 494.883 249.197 492.478 251.032 490.093C251.636 490.093 252.239 490.093 252.862 490.093C252.862 489.489 252.862 488.885 252.862 488.263C255.103 486.715 255.103 486.715 258.066 485.003C259.032 484.436 259.998 483.868 260.993 483.284C270.689 478.43 283.698 480.014 292.437 486.204Z" fill="#F3B6B7"/>
<path d="M651.827 484.603C658.791 489.543 663.568 495.385 665.553 503.819C666.328 510.576 665.173 516.155 661.892 522.12C659.662 524.694 659.662 524.694 657.317 526.695C656.543 527.545 655.77 528.394 654.972 529.269C652.742 531.271 652.742 531.271 649.082 531.271C649.082 531.875 649.082 532.479 649.082 533.101C641.301 535.694 631.94 536.634 624.097 533.862C615.84 529.51 610.233 523.116 606.075 514.8C605.484 506.145 605.464 498.741 610.993 491.695C621.773 480.402 637.663 476.824 651.827 484.603Z" fill="#F3B7B7"/>
<path d="M245.547 318.98C244.136 321.971 242.469 324.697 240.629 327.444C240.094 328.261 239.558 329.077 239.006 329.918C238.447 330.536 237.888 331.154 237.312 331.791C236.104 331.791 234.896 331.791 233.652 331.791C233.652 332.395 233.652 332.999 233.652 333.621C232.788 333.954 232.788 333.954 231.908 334.293C227.395 336.06 223.061 337.922 218.818 340.269C217.181 340.941 217.181 340.941 213.521 340.941C213.521 341.545 213.521 342.149 213.521 342.771C212.9 342.983 212.28 343.194 211.641 343.411C206.357 345.263 201.41 347.381 196.439 349.949C193.97 351.173 191.473 352.139 188.883 353.069C181.83 355.586 181.83 355.586 175.203 359.014C173.259 360.157 173.259 360.157 169.599 360.157C169.297 361.063 168.995 361.969 168.684 362.902C167.172 363.617 167.172 363.617 165.081 364.275C159.328 366.407 154.367 369.6 149.188 372.834C144.543 375.733 139.853 378.453 135.006 381.003C133.188 382.012 131.574 383.111 129.909 384.349C127.507 385.779 127.507 385.779 125.069 385.41C124.364 385.23 123.658 385.05 122.931 384.864C122.421 375.56 122.715 370.143 128.829 363.053C154.397 335.356 198.005 325.674 233.652 319.895C234.627 319.722 235.603 319.549 236.608 319.37C239.613 318.908 242.512 318.92 245.547 318.98Z" fill="#FBF9F9"/>
<path d="M219.008 359.242C219.914 359.544 220.82 359.846 221.754 360.157C221.528 360.654 221.303 361.151 221.07 361.663C214.801 375.462 214.801 375.462 208.943 389.439C208.7 390.035 208.458 390.63 208.208 391.244C204.172 401.176 200.85 411.144 197.962 421.465C197.509 422.824 197.509 422.824 197.047 424.21C176.545 424.478 157.962 422.038 141.23 409.57C140.516 409.041 139.802 408.513 139.067 407.968C132.427 402.605 127.368 395.34 123.844 387.609C123.844 387.005 123.844 386.401 123.844 385.779C132 383.687 140.076 382.595 148.436 381.718C157.627 380.732 166.22 379.243 175.086 376.628C177.45 375.94 179.814 375.255 182.178 374.569C183.192 374.263 184.207 373.956 185.252 373.64C187.897 372.968 187.897 372.968 191.557 372.968C191.557 372.364 191.557 371.76 191.557 371.138C193.139 370.697 194.721 370.259 196.304 369.822C197.185 369.578 198.066 369.334 198.974 369.082C201.372 368.458 203.763 367.936 206.198 367.478C206.198 366.874 206.198 366.27 206.198 365.648C208.916 365.195 208.916 365.195 211.688 364.732C211.688 364.129 211.688 363.525 211.688 362.902C212.726 362.468 213.764 362.034 214.834 361.587C217.871 360.49 217.871 360.49 219.008 359.242Z" fill="#F4B9B8"/>
<path d="M593.146 405.167C601.306 410.777 606.843 417.868 610.646 426.956C610.981 427.659 611.316 428.362 611.661 429.087C612.714 432.244 612.752 435.013 612.762 438.337C612.777 439.506 612.793 440.675 612.809 441.879C612.324 446.801 610.643 449.724 607.386 453.378C604.215 455.822 601.196 455.92 597.289 455.709C593.087 454.971 590.573 452.999 588.106 449.611C586.63 446.634 586.521 444.503 586.455 441.197C586.095 434.955 584.662 431.901 580.049 427.643C574.671 423.969 569.448 423.239 563.064 424.211C558.581 426.004 555.06 428.277 552.026 432.046C550.919 436.104 550.743 440.036 550.625 444.231C550.092 448.326 548.333 450.708 545.678 453.779C541.497 456.13 537.554 456.008 532.867 455.323C528.783 453.15 526.111 449.64 524.632 445.257C523.203 435.417 525.81 425.657 531.323 417.463C546.979 396.964 570.785 392.006 593.146 405.167Z" fill="#272727"/>
<path d="M365.238 404.938C366.525 405.859 367.803 406.792 369.07 407.74C370.013 408.419 370.957 409.099 371.929 409.799C380.116 417.63 385.513 427.741 385.827 439.138C385.767 444.078 384.869 447.693 381.88 451.662C378.684 454.706 376.123 455.585 371.815 455.837C368.619 455.702 366.58 455.29 364.037 453.321C360.471 449.309 359.753 446.024 359.576 440.739C359.151 434.767 357.526 431.716 353.114 427.642C347.672 423.926 342.572 423.488 336.128 424.211C331.799 425.496 327.833 427.876 325.044 431.499C323.533 434.968 323.687 438.719 323.521 442.455C323.166 447.34 321.415 449.802 318.228 453.378C315.075 455.785 312.081 456.031 308.191 455.826C304.359 454.972 301.902 452.894 299.526 449.832C295.684 443.549 296.569 437.581 297.696 430.616C301.345 417.414 310.164 408.633 321.798 401.932C335.115 395.013 352.915 397.094 365.238 404.938Z" fill="#272727"/>
<path d="M292.437 486.204C298.836 491.453 303.372 496.88 304.394 505.284C304.726 512.887 302.78 519.433 298.042 525.437C295.869 527.61 295.869 527.61 294.039 527.61C294.039 528.214 294.039 528.818 294.039 529.44C292.287 530.341 290.533 531.236 288.777 532.128C287.801 532.627 286.824 533.126 285.818 533.64C279.089 536.786 271.188 536.92 264.071 534.816C256.42 531.847 248.845 525.609 245.448 518.045C243.004 510.599 242.833 504.66 246.321 497.524C247.751 494.883 249.197 492.478 251.032 490.093C251.636 490.093 252.239 490.093 252.862 490.093C252.862 489.489 252.862 488.885 252.862 488.263C255.103 486.715 255.103 486.715 258.066 485.003C259.032 484.436 259.998 483.868 260.993 483.284C270.689 478.43 283.698 480.014 292.437 486.204Z" fill="#FCDCDC"/>
<path d="M651.827 484.603C658.791 489.543 663.568 495.385 665.553 503.819C666.328 510.576 665.173 516.155 661.892 522.12C659.662 524.694 659.662 524.694 657.317 526.695C656.543 527.545 655.77 528.394 654.972 529.269C652.742 531.271 652.742 531.271 649.082 531.271C649.082 531.875 649.082 532.479 649.082 533.101C641.301 535.694 631.94 536.634 624.097 533.862C615.84 529.51 610.233 523.116 606.075 514.8C605.484 506.145 605.464 498.741 610.993 491.695C621.773 480.402 637.663 476.824 651.827 484.603Z" fill="#FCDCDC"/>
<path d="M245.547 318.98C244.136 321.971 242.469 324.697 240.629 327.444C240.094 328.261 239.558 329.077 239.006 329.918C238.447 330.536 237.888 331.154 237.312 331.791C236.104 331.791 234.896 331.791 233.652 331.791C233.652 332.395 233.652 332.999 233.652 333.621C232.788 333.954 232.788 333.954 231.908 334.293C227.395 336.06 223.061 337.922 218.818 340.269C217.181 340.941 217.181 340.941 213.521 340.941C213.521 341.545 213.521 342.149 213.521 342.771C212.9 342.983 212.28 343.194 211.641 343.411C206.357 345.263 201.41 347.381 196.439 349.949C193.97 351.173 191.473 352.139 188.883 353.069C181.83 355.586 181.83 355.586 175.203 359.014C173.259 360.157 173.259 360.157 169.599 360.157C169.297 361.063 168.995 361.969 168.684 362.902C167.172 363.617 167.172 363.617 165.081 364.275C159.328 366.407 154.367 369.6 149.188 372.834C144.543 375.733 139.853 378.453 135.006 381.003C133.188 382.012 131.574 383.111 129.909 384.349C127.507 385.779 127.507 385.779 125.069 385.41C124.364 385.23 123.658 385.05 122.931 384.864C122.421 375.56 122.715 370.143 128.829 363.053C154.397 335.356 198.005 325.674 233.652 319.895C234.627 319.722 235.603 319.549 236.608 319.37C239.613 318.908 242.512 318.92 245.547 318.98Z" fill="#FBF9F9"/>
<path d="M233.647 331.791C234.855 332.093 236.063 332.395 237.307 332.706C236.658 333.739 236.658 333.739 235.996 334.794C235.088 336.251 235.088 336.251 234.162 337.739C233.835 338.262 233.507 338.786 233.17 339.326C231.306 342.342 229.545 345.385 227.892 348.523C227.545 349.174 227.198 349.825 226.84 350.496C226.169 351.762 225.513 353.035 224.872 354.317C222.439 358.881 220.1 360.801 215.346 362.903C214.138 362.903 212.931 362.903 211.686 362.903C211.686 363.506 211.686 364.11 211.686 364.733C209.874 365.035 208.063 365.337 206.196 365.648C206.196 366.252 206.196 366.856 206.196 367.478C204.272 368.093 202.346 368.701 200.42 369.308C199.347 369.648 198.275 369.987 197.17 370.337C194.3 371.138 194.3 371.138 191.555 371.138C191.555 371.742 191.555 372.346 191.555 372.968C186.797 374.312 182.034 375.633 177.266 376.937C175.425 377.449 173.591 377.988 171.76 378.533C162.962 381.004 154.046 382.179 145.002 383.32C144 383.448 144 383.448 142.978 383.578C141.063 383.82 139.148 384.053 137.231 384.281C136.107 384.416 134.984 384.551 133.825 384.69C131.162 384.864 131.162 384.864 129.332 383.949C135.066 379.944 141.026 376.417 147.115 372.989C150.179 371.263 153.194 369.458 156.211 367.649C159.303 365.828 162.267 364.275 165.648 363.074C168.76 362.352 168.76 362.352 169.594 360.157C171.319 359.48 173.048 358.81 174.795 358.192C178.326 356.894 181.722 355.297 185.15 353.752C188.157 352.447 191.169 351.166 194.2 349.917C199.988 347.539 199.988 347.539 205.624 344.83C208.265 343.573 210.623 343.116 213.516 342.772C213.516 342.168 213.516 341.564 213.516 340.941C214.113 340.709 214.71 340.477 215.325 340.237C218.845 338.851 222.28 337.482 225.641 335.737C228.334 334.452 230.696 333.972 233.647 333.621C233.647 333.017 233.647 332.413 233.647 331.791Z" fill="#FCDAD9"/>
<path d="M274.822 221.071C277.556 223.421 278.798 226.094 280.37 229.306C286.249 240.353 294.629 247.417 305.019 254.012C302.252 256.813 299.451 259.531 296.497 262.133C295.438 263.069 295.438 263.069 294.356 264.024C291.733 266.324 289.104 268.617 286.468 270.901C284.97 272.239 283.547 273.624 282.143 275.058C280.612 274.463 279.088 273.85 277.567 273.228C276.907 272.983 276.246 272.738 275.566 272.485C273.279 270.987 273.02 269.358 272.077 266.823C270.886 265.275 269.664 263.751 268.417 262.248C265.017 257.963 264.16 254.628 264.299 249.266C264.311 248.578 264.323 247.891 264.335 247.183C264.707 236.902 269.077 229.414 274.822 221.071Z" fill="#D0ADAE"/>
<path d="M633.523 221.071C636.268 221.986 636.268 221.986 637.64 224.22C648.031 245.84 648.031 245.84 644.857 257.991C642.551 263.101 638.541 266.773 634.438 270.483C633.192 271.644 633.192 271.644 631.921 272.828C629.862 274.143 629.862 274.143 628.085 273.924C625.986 273.148 624.897 272.285 623.3 270.73C622.77 270.224 622.241 269.718 621.696 269.196C621.145 268.658 620.594 268.121 620.026 267.567C616.476 264.17 612.997 260.875 608.988 258.016C606.071 255.843 606.071 255.843 605.156 253.097C606.119 252.515 606.119 252.515 607.101 251.921C620.086 243.894 627.665 235.27 633.523 221.071Z" fill="#D0A9AC"/>
<path d="M466.071 350.092C466.071 350.696 466.071 351.3 466.071 351.922C466.864 351.979 466.864 351.979 467.673 352.036C470.914 353.297 471.822 355.299 473.392 358.327C473.996 361.652 474.097 363.651 472.219 366.531C468.714 370.732 468.714 370.732 466.071 372.053C461.183 372.374 458.158 372.47 454.176 369.308C452.113 366.214 452.121 365.093 452.174 361.473C452.18 360.585 452.186 359.696 452.192 358.781C452.346 356.497 452.346 356.497 453.261 354.667C453.865 354.667 454.469 354.667 455.091 354.667C455.091 354.063 455.091 353.459 455.091 352.837C458.961 350.626 461.609 349.773 466.071 350.092Z" fill="#FCDCDC"/>
<path d="M645.417 249.437C645.719 249.437 646.021 249.437 646.332 249.437C646.957 262.486 644.978 273.916 639.927 286.039C638.097 286.039 638.097 286.039 636.646 284.598C636.105 283.96 635.565 283.322 635.008 282.665C634.473 282.038 633.937 281.412 633.386 280.767C631.576 278.578 629.799 276.366 628.031 274.143C628.628 273.689 629.225 273.235 629.84 272.767C637.324 266.949 643.485 262.047 645.074 252.354C645.187 251.391 645.3 250.429 645.417 249.437Z" fill="#C78A90"/>
<path d="M263.847 245.777C264.149 245.777 264.451 245.777 264.762 245.777C264.754 246.463 264.745 247.15 264.737 247.857C264.986 256.45 267.884 261.71 273.912 267.738C273.912 268.946 273.912 270.154 273.912 271.398C274.441 271.474 274.969 271.549 275.514 271.627C278.136 272.501 279.402 273.946 281.233 275.973C280.587 276.603 280.587 276.603 279.928 277.246C276.355 280.755 276.355 280.755 273.169 284.609C272.81 285.081 272.452 285.553 272.082 286.039C271.478 286.039 270.874 286.039 270.252 286.039C264.854 272.366 263.455 260.347 263.847 245.777Z" fill="#C88E91"/>
<path d="M341.738 673.961C342.988 674.228 342.988 674.228 344.262 674.501C344.901 674.643 345.541 674.786 346.199 674.933C346.143 675.65 346.086 676.368 346.028 677.106C346.084 677.899 346.141 678.692 346.199 679.508C347.105 680.112 348.011 680.716 348.944 681.339C347.737 681.339 346.529 681.339 345.284 681.339C344.982 682.244 344.68 683.15 344.369 684.084C341.382 682.433 339.895 681.49 337.964 678.593C338.266 677.989 338.568 677.386 338.879 676.763C337.671 676.461 336.463 676.159 335.219 675.848C335.219 675.244 335.219 674.64 335.219 674.018C337.709 672.773 339.047 673.374 341.738 673.961Z" fill="#F7C9C9"/>
<path d="M233.647 331.791C234.855 332.093 236.063 332.395 237.307 332.706C236.658 333.739 236.658 333.739 235.996 334.794C235.088 336.251 235.088 336.251 234.162 337.739C233.835 338.262 233.507 338.786 233.17 339.326C231.306 342.342 229.545 345.385 227.892 348.523C227.545 349.174 227.198 349.825 226.84 350.496C226.169 351.762 225.513 353.035 224.872 354.317C222.439 358.881 220.1 360.801 215.346 362.903C214.138 362.903 212.931 362.903 211.686 362.903C211.686 363.506 211.686 364.11 211.686 364.733C209.874 365.035 208.063 365.337 206.196 365.648C206.196 366.252 206.196 366.856 206.196 367.478C204.272 368.093 202.346 368.701 200.42 369.308C199.347 369.648 198.275 369.987 197.17 370.337C194.3 371.138 194.3 371.138 191.555 371.138C191.555 371.742 191.555 372.346 191.555 372.968C186.797 374.312 182.034 375.633 177.266 376.937C175.425 377.449 173.591 377.988 171.76 378.533C162.962 381.004 154.046 382.179 145.002 383.32C144 383.448 144 383.448 142.978 383.578C141.063 383.82 139.148 384.053 137.231 384.281C136.107 384.416 134.984 384.551 133.825 384.69C131.162 384.864 131.162 384.864 129.332 383.949C135.066 379.944 141.026 376.417 147.115 372.989C150.179 371.263 153.194 369.458 156.211 367.649C159.303 365.828 162.267 364.275 165.648 363.074C168.76 362.352 168.76 362.352 169.594 360.157C171.319 359.48 173.048 358.81 174.795 358.192C178.326 356.894 181.722 355.297 185.15 353.752C188.157 352.447 191.169 351.166 194.2 349.917C199.988 347.539 199.988 347.539 205.624 344.83C208.265 343.573 210.623 343.116 213.516 342.772C213.516 342.168 213.516 341.564 213.516 340.941C214.113 340.709 214.71 340.477 215.325 340.237C218.845 338.851 222.28 337.482 225.641 335.737C228.334 334.452 230.696 333.972 233.647 333.621C233.647 333.017 233.647 332.413 233.647 331.791Z" fill="#FCDAD9"/>
<path d="M274.822 221.071C277.556 223.421 278.798 226.094 280.37 229.306C286.249 240.353 294.629 247.417 305.019 254.012C302.252 256.813 299.451 259.531 296.497 262.133C295.438 263.069 295.438 263.069 294.356 264.024C291.733 266.324 289.104 268.617 286.468 270.901C284.97 272.239 283.547 273.624 282.143 275.058C280.612 274.463 279.088 273.85 277.567 273.228C276.907 272.983 276.246 272.738 275.566 272.485C273.279 270.987 273.02 269.358 272.077 266.823C270.886 265.275 269.664 263.751 268.417 262.248C265.017 257.963 264.16 254.628 264.299 249.266C264.311 248.578 264.323 247.891 264.335 247.183C264.707 236.902 269.077 229.414 274.822 221.071Z" fill="#D0ADAE"/>
<path d="M633.523 221.071C636.268 221.986 636.268 221.986 637.64 224.22C648.031 245.84 648.031 245.84 644.857 257.991C642.551 263.101 638.541 266.773 634.438 270.483C633.192 271.644 633.192 271.644 631.921 272.828C629.862 274.143 629.862 274.143 628.085 273.924C625.986 273.148 624.897 272.285 623.3 270.73C622.77 270.224 622.241 269.718 621.696 269.196C621.145 268.658 620.594 268.121 620.026 267.567C616.476 264.17 612.997 260.875 608.988 258.016C606.071 255.843 606.071 255.843 605.156 253.097C606.119 252.515 606.119 252.515 607.101 251.921C620.086 243.894 627.665 235.27 633.523 221.071Z" fill="#D0A9AC"/>
<path d="M645.417 249.437C645.719 249.437 646.021 249.437 646.332 249.437C646.957 262.486 644.978 273.916 639.927 286.039C638.097 286.039 638.097 286.039 636.646 284.598C636.105 283.96 635.565 283.322 635.008 282.665C634.473 282.038 633.937 281.412 633.386 280.767C631.576 278.578 629.799 276.366 628.031 274.143C628.628 273.689 629.225 273.235 629.84 272.767C637.324 266.949 643.485 262.047 645.074 252.354C645.187 251.391 645.3 250.429 645.417 249.437Z" fill="#C78A90"/>
<path d="M263.847 245.777C264.149 245.777 264.451 245.777 264.762 245.777C264.754 246.463 264.745 247.15 264.737 247.857C264.986 256.45 267.884 261.71 273.912 267.738C273.912 268.946 273.912 270.154 273.912 271.398C274.441 271.474 274.969 271.549 275.514 271.627C278.136 272.501 279.402 273.946 281.233 275.973C280.587 276.603 280.587 276.603 279.928 277.246C276.355 280.755 276.355 280.755 273.169 284.609C272.81 285.081 272.452 285.553 272.082 286.039C271.478 286.039 270.874 286.039 270.252 286.039C264.854 272.366 263.455 260.347 263.847 245.777Z" fill="#C88E91"/>
<path d="M455.091 489.39C539.987 489.423 608.818 529.128 608.818 578.018C608.818 626.9 539.987 661.657 455.091 656.296C370.186 661.666 301.363 626.9 301.363 578.027C301.363 529.128 370.186 489.423 455.074 489.39" fill="#FFC8C8"/>
<path d="M451.927 230.848C454.785 230.85 457.643 230.829 460.502 230.806C472.375 230.768 483.68 231.747 495.354 233.881C496.372 234.054 497.389 234.226 498.438 234.403C543.169 242.163 592.143 265.059 620.715 301.595C622.222 303.138 623.748 304.663 625.29 306.17C651.792 332.34 670.597 372.696 681.727 407.783C682.454 410.048 683.249 412.084 684.239 414.263C686.566 419.543 687.826 425.222 689.286 430.788C689.529 431.705 689.529 431.705 689.776 432.64C696.906 459.696 700.859 486.779 700.324 514.8C700.313 515.547 700.301 516.294 700.289 517.063C699.333 567.58 679.112 610.084 643.806 645.441C614.418 673.341 575.096 689.869 536.188 699.182C535.581 699.328 534.975 699.474 534.35 699.624C492.989 709.478 449.633 712.246 407.51 706.045C406.751 705.942 405.992 705.84 405.21 705.734C382.733 702.693 360.118 696.25 339.148 687.675C337.267 686.916 335.38 686.208 333.47 685.528C324.527 682.327 316.155 678.468 307.77 674.018C307.111 673.674 306.453 673.329 305.775 672.975C290.219 664.8 276.38 655.237 263.847 642.907C263.303 642.38 262.759 641.853 262.198 641.31C255.862 635.176 249.723 629.095 244.632 621.861C243.697 620.574 243.697 620.574 242.744 619.262C233.508 606.29 226.205 593.092 220.68 578.132C220.208 576.867 219.721 575.607 219.212 574.357C216.952 568.733 215.684 562.914 214.378 557.007C214.144 556 213.91 554.992 213.668 553.954C210.439 539.474 209.479 525.025 209.517 510.225C209.517 509.44 209.518 508.656 209.519 507.847C209.628 475.015 214.786 441.381 226.51 410.594C227.277 408.572 228.02 406.541 228.761 404.509C235.072 387.393 242.609 370.983 251.208 354.896C251.719 353.939 252.229 352.981 252.755 351.995C256.394 345.3 260.471 338.999 264.763 332.706C265.586 331.458 266.406 330.207 267.222 328.953C271.584 322.29 276.138 315.961 281.233 309.83C281.86 309.035 282.486 308.24 283.131 307.421C291.22 297.226 300.294 288.587 310.515 280.549C311.287 279.919 312.06 279.289 312.856 278.64C331.641 263.342 353.284 251.315 376.398 243.947C377.79 243.471 379.182 242.994 380.573 242.517C381.225 242.306 381.878 242.095 382.55 241.877C384.031 241.397 385.505 240.897 386.975 240.383C393.835 238.097 400.77 236.568 407.853 235.14C408.782 234.951 409.711 234.763 410.668 234.568C413.575 233.999 416.486 233.472 419.405 232.966C420.899 232.703 420.899 232.703 422.422 232.434C432.246 230.903 442.002 230.827 451.927 230.848ZM455.092 352.837C455.092 353.441 455.092 354.045 455.092 354.667C454.488 354.667 453.884 354.667 453.262 354.667C451.453 358.286 451.825 362.629 452.347 366.563C454.361 369.214 455.811 370.583 458.752 372.053C463.588 372.671 463.588 372.671 467.946 370.892C471.294 368.048 473.207 366.315 473.736 361.816C473.323 357.616 471.931 354.808 468.818 351.922C467.912 351.922 467.006 351.922 466.073 351.922C466.073 351.318 466.073 350.714 466.073 350.092C461.61 349.773 458.962 350.626 455.092 352.837ZM532.871 415.06C526.895 423.986 522.797 434.386 524.635 445.257C526.628 449.575 528.91 452.682 532.871 455.322C537.052 456.015 541.203 456.28 544.988 454.189C547.69 451.93 549.128 450.474 550.257 447.087C550.373 445.182 550.465 443.275 550.543 441.368C550.952 436.025 551.383 432.925 554.832 428.786C559.731 424.803 564.443 423.504 570.713 423.828C575.93 424.653 579.702 426.733 583.141 430.731C585.824 434.47 586.047 436.34 586.229 440.91C586.686 447.27 587.658 450.053 592.463 454.293C596.445 455.851 600.038 456.135 604.244 455.322C608.593 452.933 611.024 449.997 612.48 445.257C613.751 433.792 611.407 424.833 604.359 415.632C595.796 405.669 584.319 398.656 571.017 397.385C555.777 396.867 542.521 403.303 532.871 415.06ZM305.743 414.592C300.611 421.813 297.697 429.14 296.789 437.937C296.657 439.05 296.525 440.164 296.389 441.311C297.081 446.551 299.955 450.052 303.366 453.95C307.272 456.033 310.77 456.217 315.09 455.322C319.439 452.925 321.861 450.001 323.325 445.257C323.475 443.297 323.567 441.332 323.611 439.366C324.056 432.794 324.056 432.794 326.128 430.102C331.75 425.436 336.344 423.553 343.75 423.861C348.989 424.609 352.77 426.732 356.21 430.731C358.778 434.311 359.128 436.098 359.355 440.453C359.798 446.063 360.83 449.54 364.56 453.835C368.521 456.027 371.973 456.109 376.398 455.322C380.31 453.676 382.356 451.469 384.576 447.888C387.179 440.436 385.801 432.229 382.803 425.126C376.54 412.977 367.54 404.097 354.437 399.505C350.019 398.222 345.623 398.349 341.054 398.304C340.187 398.277 339.32 398.251 338.427 398.223C325.679 398.11 313.803 404.844 305.743 414.592ZM415.373 482.316C412.645 482.842 409.908 483.295 407.166 483.75C394.546 485.915 382.815 489.08 370.908 493.754C369.294 494.37 367.679 494.984 366.064 495.599C356.845 499.154 348.049 502.893 339.796 508.395C339.796 508.999 339.796 509.603 339.796 510.225C339.144 510.304 338.492 510.383 337.82 510.465C334.672 511.283 332.823 512.658 330.245 514.629C327.591 516.637 325.018 518.545 322.182 520.291C319.316 522.375 317.295 524.706 315.029 527.411C312.476 530.341 309.677 533.001 306.869 535.686C304.953 537.754 303.716 539.832 302.279 542.252C301.547 543.08 300.814 543.908 300.06 544.761C297.161 548.164 295.554 551.983 293.872 556.092C293.395 557.254 293.395 557.254 292.907 558.44C287.759 571.363 286.226 587.32 290.384 600.815C290.576 601.441 290.768 602.067 290.966 602.713C292.893 607.796 296.024 612.056 299.191 616.428C299.641 617.05 300.091 617.672 300.555 618.314C301.691 619.839 302.895 621.312 304.109 622.776C304.713 622.776 305.317 622.776 305.94 622.776C306.128 623.29 306.317 623.804 306.511 624.334C308.221 627.19 310.61 628.864 313.26 630.782C313.76 631.159 314.26 631.535 314.775 631.923C317.4 634.026 317.4 634.026 320.58 634.671C320.58 635.275 320.58 635.879 320.58 636.501C321.316 636.766 322.052 637.03 322.811 637.302C325.156 638.331 325.156 638.331 326.071 640.162C327.588 640.79 329.115 641.396 330.646 641.992C332.395 642.996 334.129 644.028 335.85 645.08C345.018 650.55 345.018 650.55 355.352 652.057C355.352 652.661 355.352 653.265 355.352 653.887C356.686 654.066 358.02 654.236 359.355 654.402C360.098 654.498 360.842 654.593 361.607 654.692C363.632 654.969 363.632 654.969 365.418 653.887C365.455 654.45 365.493 655.013 365.532 655.592C366.181 657.807 366.181 657.807 368.735 658.673C374.097 660.194 379.207 661.498 384.769 661.933C387.066 662.19 388.938 663.013 391.039 663.953C395.978 665.566 400.687 666.242 405.851 666.698C410.665 667.156 415.4 667.651 420.149 668.585C452.296 674.17 493.649 672.854 524.635 663.038C524.937 662.736 525.239 662.434 525.55 662.123C528.374 661.551 531.2 661.031 534.04 660.55C537.903 659.836 540.527 658.636 543.851 656.632C545.991 656.161 548.149 655.766 550.314 655.431C557.118 654.217 562.512 651.766 568.558 648.397C569.839 647.728 571.122 647.064 572.407 646.402C582.957 641.392 582.957 641.392 592.349 634.671C592.349 633.765 592.349 632.86 592.349 631.926C593.359 631.795 593.359 631.795 594.39 631.662C602.388 629.609 608.373 620.272 612.48 613.625C612.48 613.021 612.48 612.417 612.48 611.795C613.084 611.795 613.688 611.795 614.31 611.795C615.367 609.168 616.412 606.536 617.455 603.903C617.753 603.163 618.051 602.424 618.358 601.662C623.02 589.837 623.829 574.887 619.082 562.944C617.597 559.75 616.099 556.576 614.446 553.465C613.341 551.296 612.459 549.089 611.565 546.827C610.277 544.297 610.277 544.297 608.82 542.252C608.216 542.252 607.612 542.252 606.989 542.252C606.989 541.648 606.989 541.044 606.989 540.422C606.386 540.422 605.782 540.422 605.159 540.422C604.933 539.931 604.706 539.44 604.473 538.935C601.746 533.753 598.757 530.34 594.179 526.696C593.481 525.979 592.782 525.262 592.063 524.523C586.066 518.666 579.238 514.286 572.053 510.039C569.473 508.395 569.473 508.395 567.932 506.847C566.023 504.95 563.826 505.022 561.237 504.735C561.237 504.131 561.237 503.527 561.237 502.905C556.428 500.414 551.777 498.118 546.597 496.499C545.068 495.899 543.543 495.288 542.021 494.669C534.498 491.629 534.498 491.629 526.466 491.009C526.466 490.405 526.466 489.801 526.466 489.179C516.544 486.272 507.176 483.655 496.819 482.999C494.439 482.774 494.439 482.774 491.694 481.859C489.27 481.672 486.858 481.519 484.431 481.401C477.529 481.066 477.529 481.066 475.243 480.479C473.3 480.006 471.599 479.901 469.601 479.881C468.859 479.873 468.118 479.864 467.354 479.855C466.157 479.849 466.157 479.849 464.936 479.843C464.102 479.836 463.267 479.83 462.408 479.823C459.702 479.807 456.997 479.802 454.291 479.8C453.372 479.799 452.452 479.799 451.505 479.798C439.315 479.811 427.374 479.961 415.373 482.316ZM252.867 488.264C252.867 488.868 252.867 489.472 252.867 490.094C251.961 490.396 251.055 490.698 250.122 491.009C245.861 496.307 243.277 502.243 243.488 509.114C244.228 515.675 245.866 520.557 251.037 524.866C252.169 526.027 252.169 526.027 253.324 527.211C259.548 533.278 265.056 535.918 273.799 536.247C281.182 536.058 287.95 533.595 294.044 529.441C294.044 528.837 294.044 528.233 294.044 527.611C294.572 527.422 295.101 527.234 295.645 527.039C299.893 524.443 302.03 519.631 303.613 515.04C305.408 507.563 304.372 500.355 300.449 493.754C294.682 486.674 288.331 482.767 279.403 480.944C269.602 479.987 260.598 481.881 252.867 488.264ZM619.8 484.604C619.181 484.874 618.562 485.144 617.924 485.422C613.002 488.213 608.181 494.54 606.493 499.909C605.112 506.775 604.929 513.744 608.534 519.89C613.16 526.485 619.344 532.339 627.12 534.931C629.478 535.044 631.798 535.105 634.155 535.103C634.811 535.104 635.468 535.104 636.144 535.105C640.768 535.059 644.711 534.558 649.082 533.101C649.082 532.497 649.082 531.893 649.082 531.271C649.723 531.215 650.365 531.158 651.026 531.1C657.488 529.273 660.315 524.322 663.54 518.829C666.256 513.389 666.448 507.265 664.927 501.414C661.695 492.631 656.287 487.28 648.167 482.774C638.981 478.812 628.488 480.146 619.8 484.604ZM337.051 673.103C336.145 673.556 336.145 673.556 335.221 674.018C335.523 674.924 335.825 675.83 336.136 676.763C337.042 676.763 337.948 676.763 338.881 676.763C338.579 677.669 338.277 678.575 337.966 679.509C340.426 681.57 342.218 683.061 345.287 684.084C345.287 683.178 345.287 682.272 345.287 681.339C346.494 681.037 347.702 680.735 348.947 680.424C348.041 679.82 347.135 679.216 346.202 678.593C346.202 677.386 346.202 676.178 346.202 674.933C345.031 674.801 343.861 674.669 342.656 674.533C340.476 674.287 339.023 674.089 337.051 673.103Z" fill="url(#paint0_linear_236_146)"/>
<path d="M286.932 193.269C291.38 195.487 293.909 199.273 295.872 203.684C296.403 205.72 296.789 207.754 297.177 209.822C299.917 220.765 309.24 227.175 317.754 233.577C320.578 235.711 320.578 235.711 322.944 237.874C325.008 239.618 325.008 239.618 327.296 239.151C329.86 238.419 331.929 237.442 334.265 236.158C335.124 235.693 335.984 235.229 336.87 234.75C337.778 234.256 338.687 233.761 339.623 233.252C347.468 229.076 355.192 225.395 363.622 222.587C365.523 221.949 367.409 221.278 369.297 220.602C384.645 215.194 400.562 211.524 416.658 209.175C417.508 209.05 418.357 208.924 419.232 208.795C457.757 203.303 499.612 206.226 536.529 219.24C538.605 219.857 540.683 220.467 542.763 221.07C547.365 222.482 551.647 224.24 555.988 226.31C558.561 227.509 561.168 228.551 563.809 229.592C566.989 230.867 569.9 232.263 572.788 234.095C573.63 234.622 573.63 234.622 574.49 235.159C575.583 235.856 576.661 236.577 577.721 237.322C579.411 238.476 579.411 238.476 582.281 239.371C584.879 238.278 586.505 237.371 588.686 235.711C589.445 235.167 589.445 235.167 590.218 234.613C591.735 233.503 593.215 232.356 594.691 231.193C595.43 230.621 595.43 230.621 596.184 230.037C597.172 229.267 598.156 228.493 599.135 227.712C600.548 226.588 601.979 225.485 603.409 224.384C608.875 219.461 611.107 214.942 612.706 207.859C614.274 201.989 615.896 197.555 620.97 193.808C626.044 191.556 630.887 191.682 636.269 192.704C639.743 194.076 642.49 195.896 645.419 198.194C646.046 198.647 646.672 199.1 647.317 199.567C659.095 208.822 667.344 225.353 669.754 239.907C671.787 258.337 670.705 276.461 662.805 293.359C663.515 293.397 664.224 293.435 664.955 293.475C672.646 293.967 680.027 295.117 687.569 296.676C688.75 296.917 689.932 297.158 691.149 297.407C735.339 306.534 735.339 306.534 751.021 315.02C753.464 316.271 755.96 317.323 758.496 318.371C780.235 327.424 800.5 342.341 810.177 364.325C814.228 374.803 813.145 387.879 808.925 398.107C799.38 419.349 781.421 433.764 760.054 441.993C746.806 446.728 733.461 448.57 719.538 449.832C719.69 450.776 719.69 450.776 719.845 451.74C720.319 454.706 720.786 457.673 721.254 460.641C721.413 461.63 721.572 462.619 721.736 463.638C724.009 478.156 725.34 492.457 725.267 507.154C725.257 509.49 725.267 511.826 725.278 514.162C725.287 523.681 724.619 532.836 723.198 542.251C723.083 543.082 722.968 543.912 722.85 544.768C719.542 568.525 712.74 590.649 701.237 611.795C700.677 612.859 700.116 613.923 699.539 615.019C694.797 623.72 689.053 631.473 682.936 639.246C682.217 640.163 681.497 641.079 680.756 642.023C660.569 667.167 635.643 685.919 606.612 699.882C603.669 701.304 600.786 702.806 597.894 704.329C592.297 707.135 586.489 709.131 580.573 711.141C577.416 712.217 574.332 713.42 571.243 714.68C549.865 722.985 527.253 727.382 504.614 730.478C503.209 730.675 501.806 730.881 500.404 731.092C486.286 733.209 472.473 733.878 458.206 733.753C454.886 733.724 451.567 733.715 448.247 733.71C446.092 733.702 443.937 733.692 441.782 733.682C440.812 733.678 439.841 733.674 438.841 733.67C429.47 733.582 420.186 733.113 410.996 731.208C406.316 730.269 401.7 729.543 396.941 729.161C394.708 728.922 392.569 728.533 390.372 728.073C387.415 727.466 384.459 726.888 381.486 726.368C332.509 717.553 282.5 694.941 246.46 660.292C245.914 659.772 245.369 659.251 244.807 658.715C223.896 638.662 208.761 615.141 197.919 588.326C197.189 586.523 196.434 584.729 195.675 582.939C180.61 544.947 180.536 491.914 189.727 452.577C190.728 450.318 190.728 450.318 191.557 448.917C190.976 448.948 190.396 448.98 189.798 449.013C163.69 449.77 138.64 440.742 119.268 423.295C107.672 412.095 98.2875 397.235 98.0004 380.82C97.9494 365.11 103.382 353.728 114.407 342.543C129.246 328.102 147.872 319.317 166.851 311.66C167.801 311.274 168.752 310.888 169.732 310.491C180.926 306.203 192.791 303.507 204.421 300.672C206.389 300.19 208.338 299.675 210.286 299.117C216.743 297.271 223.183 296.041 229.817 295.017C230.817 294.855 231.816 294.693 232.846 294.526C237.448 293.801 241.791 293.274 246.46 293.359C246.303 292.876 246.146 292.394 245.985 291.897C238.285 267.943 234.983 243.564 246.46 220.155C254.379 205.082 267.872 187.995 286.932 193.269ZM274.826 221.07C265.061 234.321 262.446 247.958 263.845 264.077C265.065 271.516 266.72 279.333 270.251 286.039C273.12 284.793 274.748 283.481 276.713 281.063C283.586 272.971 291.136 265.979 299.532 259.502C301.376 257.993 303.2 256.462 305.022 254.927C302.444 252.193 299.797 250.141 296.673 248.064C286.918 241.028 280.918 231.698 275.741 221.07C275.439 221.07 275.137 221.07 274.826 221.07ZM633.524 221.07C632.842 222.528 632.842 222.528 632.148 224.016C626.083 236.746 618.462 247.064 605.157 253.097C606.48 256.301 608.053 257.797 610.819 259.845C633.976 277.793 633.976 277.793 638.099 286.039C638.703 286.039 639.307 286.039 639.929 286.039C640.83 283.409 641.725 280.779 642.617 278.146C642.871 277.407 643.125 276.667 643.387 275.905C649.106 258.955 646.743 242.432 638.975 226.62C637.139 222.884 637.139 222.884 633.524 221.07ZM409.338 234.796C408.337 235.016 407.337 235.237 406.306 235.464C392.55 238.527 379.256 241.939 366.33 247.607C365.652 247.902 364.974 248.197 364.276 248.502C349.418 254.991 335.525 261.806 322.408 271.398C320.993 272.419 320.993 272.419 319.549 273.46C314.234 277.358 309.236 281.458 304.39 285.924C302.44 287.719 300.455 289.458 298.446 291.186C291.947 296.877 286.544 303.024 281.231 309.83C280.407 310.858 279.581 311.885 278.754 312.911C274.285 318.481 270.061 324.055 266.33 330.157C265.252 331.907 264.137 333.634 262.991 335.34C247.329 358.762 235.364 384.77 226.329 411.4C225.919 412.576 225.919 412.576 225.501 413.775C214.641 445.039 209.548 477.202 209.515 510.225C209.513 510.977 209.511 511.73 209.509 512.505C209.513 527.491 210.88 542.04 214.261 556.663C214.504 557.727 214.746 558.791 214.996 559.887C216.748 567.376 218.777 574.493 221.753 581.598C222.408 583.267 222.408 583.267 223.076 584.969C228.321 597.962 235.47 610.932 244.648 621.563C246.431 623.657 248.12 625.802 249.809 627.972C269.812 653.028 297.803 672.293 327.899 683.168C329.388 683.752 330.876 684.342 332.359 684.941C333.476 685.385 333.476 685.385 334.615 685.838C336.351 686.544 338.078 687.274 339.798 688.019C361.271 697.082 384.48 702.72 407.508 706.044C408.843 706.243 408.843 706.243 410.206 706.445C452.065 712.418 495.182 709.047 536.186 699.181C537.137 698.954 537.137 698.954 538.107 698.722C559.788 693.475 581.706 686.043 601.268 675.276C602.135 674.8 603.002 674.324 603.895 673.834C611.691 669.487 619.018 664.661 626.203 659.377C626.715 659.007 627.227 658.638 627.755 658.257C655.719 638.004 677.228 610.275 689.341 577.938C689.569 577.346 689.796 576.753 690.03 576.143C693.759 566.306 695.727 556.233 697.577 545.911C697.874 544.36 697.874 544.36 698.177 542.777C699.808 533.532 700.052 524.165 700.322 514.8C700.343 514.11 700.365 513.42 700.387 512.709C701.374 476.122 694.115 439.13 681.106 404.994C680.781 404.128 680.456 403.261 680.121 402.367C672.561 382.274 663.813 363.036 652.74 344.601C652.364 343.968 651.988 343.334 651.601 342.681C643.965 329.818 636.086 317.667 625.771 306.788C623.833 304.736 621.973 302.653 620.141 300.508C614.433 293.941 608.161 287.962 601.497 282.378C600.158 281.212 600.158 281.212 598.791 280.023C569.141 254.808 529.909 238.954 491.692 232.966C490.686 232.804 489.68 232.643 488.644 232.476C477.662 230.897 466.743 230.771 455.662 230.793C454.689 230.793 453.717 230.794 452.714 230.794C437.928 230.829 423.805 231.507 409.338 234.796ZM231.533 320.124C230.816 320.247 230.099 320.371 229.361 320.498C203.877 324.994 178.574 331.559 155.633 343.758C154.17 344.533 152.694 345.281 151.216 346.028C141.037 351.288 128.185 359.98 123.468 370.87C121.687 377.793 122.132 384.876 125.434 391.226C127.441 394.481 129.658 397.462 132.079 400.419C132.506 401.001 132.933 401.582 133.373 402.181C144.071 415.869 160.462 420.812 176.916 423.295C183.629 424.112 190.289 424.345 197.047 424.21C197.735 422.171 198.422 420.131 199.106 418.091C199.317 417.463 199.527 416.835 199.745 416.188C200.996 412.437 202.169 408.675 203.281 404.88C207.357 391.572 212.549 378.795 219.016 366.481C220.241 364.121 221.406 361.733 222.575 359.345C228.498 347.298 234.66 335.434 242.756 324.688C244.886 322.12 244.886 322.12 245.544 318.98C240.73 318.854 236.271 319.295 231.533 320.124ZM664.635 318.98C665.856 321.497 667.186 323.885 668.66 326.261C675.806 337.9 682.305 349.781 688.426 361.987C688.82 362.77 689.213 363.553 689.618 364.359C694.036 373.225 697.855 382.107 700.973 391.512C702.081 394.878 702.081 394.878 703.435 397.835C705.615 402.794 707.107 408.012 708.729 413.173C709.234 414.766 709.234 414.766 709.749 416.391C710.575 418.997 711.398 421.603 712.218 424.21C734.014 425.107 755.011 422.072 771.696 406.825C772.476 406.117 773.257 405.409 774.062 404.68C782.008 397.13 786.837 389.034 788.681 378.172C787.036 367.39 780.059 360.077 771.696 353.752C759.426 345.125 745.471 338.781 731.434 333.621C730.533 333.285 730.533 333.285 729.615 332.943C713.57 327.035 696.795 323.596 680.019 320.467C678.798 320.237 678.798 320.237 677.552 320.002C673.172 319.22 669.084 318.824 664.635 318.98Z" fill="#313131"/>
<path d="M407.891 534.53C412.498 537.076 415.189 540.617 417.041 545.511C417.447 549.897 417.353 554.3 417.282 558.7C417.365 565.368 418.781 569.091 423.446 573.877C433.076 583.088 444.847 585.322 457.77 585.243C467.973 584.954 477.58 582.132 485.669 575.707C489.503 571.514 492.161 567.977 492.236 562.232C492.257 561.363 492.279 560.493 492.302 559.598C492.341 557.777 492.369 555.957 492.388 554.136C492.573 547.737 493.477 542.277 498.156 537.6C500.849 535.325 503.242 534.225 506.773 534.016C511.944 534.754 514.573 536.723 517.982 540.593C522.937 547.566 521.06 559.266 520.441 567.472C519.164 574.919 515.252 581.066 510.376 586.688C509.872 587.343 509.368 587.997 508.849 588.672C501.101 598.271 490.015 604.19 478.349 607.734C477.191 608.089 477.191 608.089 476.009 608.452C468.626 610.529 461.685 610.894 454.043 610.822C452.911 610.833 451.78 610.843 450.614 610.854C443.565 610.832 437.438 610.011 430.767 607.734C429.777 607.4 428.787 607.066 427.768 606.722C412.213 600.396 399.87 589.867 392.335 574.792C389.65 567.983 389.353 561.039 389.247 553.803C389.234 553.067 389.22 552.33 389.207 551.571C389.251 546.396 390.074 542.443 393.74 538.516C398.574 534.819 401.79 533.482 407.891 534.53Z" fill="#313131"/>
<ellipse cx="273.911" cy="508.852" rx="30.1965" ry="27.9089" fill="#F4BBB9"/>
<ellipse cx="634.439" cy="507.937" rx="30.1965" ry="27.9089" fill="#F4BBB9"/>
<path d="M1965.6 286.441C1972.93 278.785 1981.87 274.957 1992.39 274.957C2002.92 274.957 2011.85 278.785 2019.19 286.441C2026.84 293.778 2030.67 302.71 2030.67 313.237C2030.67 323.764 2026.84 332.696 2019.19 340.033C2011.85 347.37 2002.92 351.038 1992.39 351.038C1981.87 351.038 1972.93 347.37 1965.6 340.033C1958.26 332.696 1954.59 323.764 1954.59 313.237C1954.59 302.71 1958.26 293.778 1965.6 286.441ZM1945.98 426.641C1949.17 420.899 1955.23 416.592 1964.16 413.721C1973.09 410.532 1981.87 408.937 1990.48 408.937C1999.41 408.937 2007.23 410.053 2013.92 412.286C2001.48 508.305 1995.26 556.792 1995.26 557.749C1993.67 564.129 1992.87 569.552 1992.87 574.018C1992.87 578.165 1993.19 581.834 1993.83 585.024C1995.1 593.318 2000.85 597.465 2011.05 597.465C2021.58 597.465 2031.15 590.766 2039.76 577.368C2048.7 563.651 2055.39 548.179 2059.86 530.954C2062.09 532.23 2065.6 536.058 2070.39 542.438C2075.17 548.817 2078.04 553.602 2079 556.792C2072.62 582.312 2061.77 602.888 2046.46 618.519C2031.15 634.15 2012.81 641.965 1991.44 641.965C1970.06 641.965 1954.11 636.702 1943.59 626.175C1933.38 615.648 1928.27 602.09 1928.27 585.502C1928.27 581.993 1928.43 578.325 1928.75 574.497L1945.98 426.641Z" fill="white"/>
<path d="M1866.23 356.78C1853.47 356.78 1835.76 354.707 1813.11 350.56C1781.21 374.804 1751.71 386.926 1724.59 386.926C1723.63 386.926 1722.68 386.926 1721.72 386.926C1702.26 386.607 1686.95 381.503 1675.78 371.614C1664.94 361.406 1659.52 348.008 1659.52 331.42C1659.52 314.513 1664.94 300.796 1675.78 290.269C1686.95 279.742 1703.38 274.479 1725.07 274.479C1739.42 274.479 1762.39 279.264 1793.97 288.833C1827.15 298.722 1851.87 303.667 1868.14 303.667C1894.94 303.667 1912.64 294.097 1921.25 274.957L1939.92 287.876C1932.9 333.812 1908.33 356.78 1866.23 356.78ZM1706.89 345.775C1706.89 353.75 1713.75 357.737 1727.46 357.737C1741.18 357.737 1757.93 352.633 1777.7 342.425C1749.63 335.407 1730.33 331.898 1719.81 331.898C1716.3 331.898 1713.27 333.334 1710.71 336.205C1708.16 338.757 1706.89 341.947 1706.89 345.775ZM1837.52 381.184L1829.86 432.383H1901.16C1904.03 439.082 1905.46 445.621 1905.46 452.001C1905.46 458.381 1902.43 463.804 1896.37 468.27C1890.31 472.417 1882.66 474.491 1873.4 474.491H1823.16L1822.68 478.797C1862.88 497.937 1882.97 526.328 1882.97 563.97C1882.97 592.361 1875.48 612.458 1860.48 624.261C1845.49 635.745 1827.79 641.487 1807.37 641.487C1786.96 641.487 1771.17 636.383 1760 626.175C1748.84 615.648 1743.25 601.771 1743.25 584.545C1743.25 581.674 1743.57 578.006 1744.21 573.54L1757.13 474.491H1712.15C1714.06 456.308 1715.66 442.272 1716.94 432.383H1762.87L1768.13 390.275C1784.72 382.3 1798.6 378.313 1809.76 378.313C1820.93 378.313 1830.18 379.27 1837.52 381.184ZM1822.2 597.943C1829.86 597.943 1836.56 595.232 1842.3 589.809C1848.04 584.067 1850.91 575.135 1850.91 563.013C1850.91 539.088 1840.07 520.746 1818.38 507.986C1813.27 543.394 1810.56 565.565 1810.24 574.497C1810.24 583.11 1811.36 589.171 1813.59 592.68C1816.14 596.189 1819.01 597.943 1822.2 597.943Z" fill="white"/>
<path d="M1651.31 413.243C1638.24 516.599 1631.7 571.626 1631.7 578.325C1631.7 591.085 1636.32 597.465 1645.57 597.465C1653.87 597.465 1662.8 591.882 1672.37 580.717C1682.26 569.233 1690.07 552.167 1695.81 529.518C1706.34 541.002 1712.72 549.934 1714.95 556.314C1707.62 587.257 1695.97 609.108 1680.02 621.868C1664.07 634.628 1647.65 641.008 1630.74 641.008C1602.99 641.008 1584.32 630.322 1574.75 608.949C1558.17 630.322 1536 641.008 1508.24 641.008C1485.28 641.008 1467.57 635.266 1455.13 623.782C1442.69 612.298 1436.47 597.305 1436.47 578.803C1436.47 574.337 1437.27 566.522 1438.86 555.357C1446.2 496.023 1451.78 448.811 1455.61 413.721C1465.5 410.213 1474.59 408.458 1482.88 408.458C1491.18 408.458 1497.4 408.777 1501.54 409.415C1505.69 410.053 1509.68 412.446 1513.51 416.592C1517.33 420.739 1519.25 426.641 1519.25 434.297L1503.46 556.314C1502.82 560.142 1502.5 563.651 1502.5 566.841C1502.5 585.662 1511.11 595.072 1528.34 595.072C1544.29 595.072 1557.53 587.257 1568.06 571.626C1568.06 568.117 1568.37 562.534 1569.01 554.878L1584.8 427.598C1587.04 422.175 1591.82 417.709 1599.16 414.2C1606.5 410.372 1615.59 408.458 1626.43 408.458C1637.6 408.458 1645.89 410.053 1651.31 413.243Z" fill="white"/>
<path d="M1350.55 277.828C1357.24 275.276 1366.65 274 1378.78 274C1390.9 274 1401.74 274.797 1411.31 276.392C1401.43 349.762 1393.61 416.273 1387.87 475.926C1382.45 535.26 1379.41 566.522 1378.78 569.712C1378.46 572.902 1378.3 575.773 1378.3 578.325C1378.62 586.619 1382.6 590.766 1390.26 590.766C1409.4 590.766 1436.04 568.755 1470.17 524.733C1476.23 541.64 1479.74 552.964 1480.7 558.706C1465.38 582.95 1446.88 602.888 1425.19 618.519C1403.82 633.831 1383.56 641.487 1364.42 641.487C1345.28 641.487 1332.04 636.542 1324.71 626.653C1317.37 616.764 1313.7 605.759 1313.7 593.637C1313.7 590.766 1314.02 585.183 1314.66 576.889C1315.61 568.595 1321.99 516.918 1333.8 421.856L1255.32 603.207H1214.65L1191.21 424.727L1157.71 573.061C1152.29 596.667 1143.36 614.053 1130.91 625.218C1118.79 636.383 1105.39 641.965 1090.72 641.965C1076.05 641.965 1064.08 637.659 1054.83 629.046C1044.94 619.795 1040 606.716 1040 589.809C1040 555.995 1066.16 527.126 1118.47 503.201C1146.86 366.988 1162.18 291.545 1164.41 276.871C1172.07 274.957 1182.27 274 1195.03 274C1208.11 274 1217.04 274.319 1221.83 274.957H1225.18L1254.85 497.459L1350.55 280.22V277.828ZM1073.97 581.674C1073.97 591.882 1077.96 596.986 1085.94 596.986C1091.36 596.986 1095.82 592.68 1099.33 584.067C1103.8 573.54 1107.47 559.663 1110.34 542.437C1086.1 556.154 1073.97 569.233 1073.97 581.674Z" fill="white"/>
<defs>
<linearGradient id="paint0_linear_236_146" x1="654.571" y1="77.162" x2="272.997" y2="767.564" gradientUnits="userSpaceOnUse">
<stop stop-color="#FCDCDC"/>
<stop offset="1" stop-color="#FFF6F6"/>
</linearGradient>
</defs>
</svg>
